<?xml version="1.0" standalone="no"?>
<!DOCTYPE svg PUBLIC "-//W3C//DTD SVG 20010904//EN"
 "http://www.w3.org/TR/2001/REC-SVG-20010904/DTD/svg10.dtd">
<svg version="1.0" xmlns="http://www.w3.org/2000/svg"
 width="700.000000pt" height="700.000000pt" viewBox="0 0 700.000000 700.000000"
 preserveAspectRatio="xMidYMid meet">
<metadata>
Created by potrace 1.14, written by Peter Selinger 2001-2017
</metadata>
<g transform="translate(0.000000,700.000000) scale(0.100000,-0.100000)"
fill="#000000" stroke="none">
<path d="M4525 6710 c-537 -37 -1166 -278 -1783 -683 l-152 -100 -128 -2
c-316 -4 -456 -99 -872 -594 -101 -121 -233 -259 -416 -436 -147 -143 -301
-300 -342 -350 -146 -174 -286 -414 -375 -640 -167 -425 -219 -979 -136 -1450
10 -60 26 -170 35 -243 42 -370 150 -603 388 -838 678 -668 1577 -1091 2496
-1174 170 -15 528 -12 696 5 784 83 1462 401 1999 940 996 997 1224 2565 579
3979 -197 433 -491 859 -824 1196 -166 168 -313 260 -520 325 -176 55 -424 80
-645 65z m449 -403 c254 -68 439 -211 550 -427 63 -122 84 -196 110 -396 5
-38 1 -46 -54 -119 -115 -149 -204 -315 -275 -510 -60 -168 -103 -222 -194
-249 -27 -8 -61 -21 -77 -29 -37 -19 -107 -93 -127 -132 -23 -46 -79 -218
-188 -580 -153 -506 -174 -567 -223 -633 -75 -101 -197 -182 -543 -356 -254
-128 -348 -185 -436 -266 -58 -54 -74 -77 -121 -173 -60 -126 -109 -196 -217
-311 -150 -161 -546 -484 -644 -526 -139 -60 -430 -137 -603 -160 -111 -15
-339 -15 -437 0 -342 52 -595 248 -704 546 -40 108 -60 211 -71 362 -5 70 -17
174 -26 232 -25 153 -25 533 0 695 61 405 219 769 449 1035 36 41 133 147 217
235 84 88 249 270 368 405 229 261 540 578 594 607 47 25 219 30 327 9 l82
-15 92 66 c439 318 941 563 1367 666 191 47 279 56 490 53 172 -3 207 -6 294
-29z"/>
</g>
</svg>
